<?xml version="1.0" encoding="utf-8"?>
<!-- Generator: Adobe Illustrator 23.0.1, SVG Export Plug-In . SVG Version: 6.00 Build 0)  -->
<svg version="1.1" id="Layer_1" xmlns="http://www.w3.org/2000/svg" xmlns:xlink="http://www.w3.org/1999/xlink" x="0px" y="0px"
	 viewBox="0 0 960 560" style="enable-background:new 0 0 960 560;" xml:space="preserve">
<style type="text/css">
	.st0{font-family:'Thasadith-Regular';}
	.st1{font-size:545.68px;}
	.st2{letter-spacing:-21;}
	.st3{fill:none;stroke:#000000;stroke-width:12.8003;stroke-miterlimit:10;}
</style>
<g>
	<g>
		<path d="M342.8,410.7c-18.2-11.6-32.3-28.4-42.3-50.2c-10-21.8-15-47.7-15-77.5c0-29.1,4.7-54.5,14.2-76.1
			c9.5-21.6,22.9-38.4,40.4-50.2c17.5-11.8,38-17.7,61.7-17.7c34.2,0,61,11.9,80.5,35.7c19.5,23.8,29.2,55.6,29.2,95.2
			c0,7.6-0.7,13.8-2.2,18.6h-203c0.7,37.8,10,67.9,27.8,90c17.8,22.2,42.2,33.3,73.1,33.3c32,0,60.4-12,85.1-36
			c3.6,0,6.4,0.8,8.2,2.5c1.8,1.6,2.7,3.5,2.7,5.7c0,4.7-4.4,10.6-13.1,17.7c-8.7,7.1-20.4,13.3-34.9,18.6
			c-14.6,5.3-30.6,7.9-48,7.9C382.4,428.1,361,422.3,342.8,410.7z M490.7,269.9c-1.5-35.6-9.8-63.7-25.1-84
			c-15.3-20.4-36.9-30.6-64.9-30.6c-29.1,0-51.9,10.7-68.5,32.2c-16.6,21.5-25.2,50-25.9,85.7L490.7,269.9z"/>
	</g>
	<g>
		<path d="M613.9,428.1c-17.5,0-33.5-2.6-48-7.9c-14.5-5.3-26.2-11.5-34.9-18.6c-8.7-7.1-13.1-13-13.1-17.7c0-2.2,0.9-4.1,2.7-5.7
			c1.8-1.6,4.6-2.5,8.2-2.5c24.7,24,53.1,36,85.1,36c30.9,0,55.3-11.1,73.1-33.3c17.8-22.2,27.1-52.2,27.8-90h-203
			c-1.5-4.7-2.2-10.9-2.2-18.6c0-39.6,9.7-71.4,29.2-95.2c19.5-23.8,46.3-35.7,80.5-35.7c23.7,0,44.2,5.9,61.7,17.7
			c17.5,11.8,30.9,28.6,40.4,50.2c9.5,21.7,14.2,47,14.2,76.1c0,29.8-5,55.7-15,77.5c-10,21.8-24.1,38.6-42.3,50.2
			C660.1,422.3,638.6,428.1,613.9,428.1z M714.8,273.2c-0.7-35.7-9.4-64.2-25.9-85.7c-16.5-21.5-39.4-32.2-68.5-32.2
			c-28,0-49.7,10.2-64.9,30.6c-15.3,20.4-23.6,48.4-25.1,84L714.8,273.2z"/>
	</g>
	<text transform="matrix(1 0 0 1 10.0005 423.8232)" class="st0 st1 st2">p</text>
	<text transform="matrix(1 0 0 1 708.8809 425.6475)" class="st0 st1 st2">k</text>
</g>
<g>
	<circle cx="375.9" cy="356.7" r="20.8"/>
	<circle cx="572.2" cy="356.7" r="20.8"/>
</g>
<line class="st3" x1="455.4" y1="281.9" x2="565.7" y2="281.9"/>
</svg>
