<?xml version="1.0" encoding="utf-8"?>
<!-- Generator: Adobe Illustrator 23.0.1, SVG Export Plug-In . SVG Version: 6.00 Build 0)  -->
<svg version="1.1" id="Layer_1" xmlns="http://www.w3.org/2000/svg" xmlns:xlink="http://www.w3.org/1999/xlink" x="0px" y="0px"
	 viewBox="0 0 960 560" style="enable-background:new 0 0 960 560;" xml:space="preserve">
<style type="text/css">
	.st0{fill:#798988;}
</style>
<g>
	<path class="st0" d="M357.7,348.2c-11.5,0-20.7,9.3-20.7,20.7c0,11.5,9.1,20.8,20.6,20.9c11.5,0.1,20.9-9.3,20.9-20.9
		C378.4,357.5,369.1,348.2,357.7,348.2z M533.3,368.9c-0.4,9.5,7.2,20.6,20.6,20.8c11.3,0.2,20.8-9.2,20.9-20.6
		c0.1-11.5-9.3-20.9-20.8-20.9C542.5,348.2,533.3,357.4,533.3,368.9z"/>
	<path class="st0" d="M34.9,171c0.3-1.1,0.8-2.2,1-3.4c0.7-3,1.6-5.8,3.8-8.1c3.7-3.7,9.6-4,14.1-1.8c1.2,0.6,1.5,1.5,1.5,2.8
		c0,2.2,0,4.5,0,6.7c0,13.2,0,26.4,0,39.6c0,0.9,0,1.7,0,2.8c1.3-0.3,1.5-1.2,2-1.9c4.6-7.5,9.9-14.6,16-20.9
		c14-14.6,30.5-25.2,50.3-30.2c7.9-2,16-2.9,24.2-3.2c11.6-0.4,23.2,0.5,34.4,3.7c21,5.9,37.6,18,50.6,35.3
		c10.5,14,17.2,29.8,21.4,46.8c2.5,10.4,4.1,21,4.9,31.7c0.6,8.8,1,17.6,0.8,26.4c-0.7,24.3-4.4,48-13.7,70.7
		c-5.9,14.4-13.6,27.7-24.1,39.2c-16.5,18-36.6,29.4-60.8,33.4c-17.7,2.9-35.4,2.6-52.8-2.2c-19.4-5.3-35.7-15.7-49.3-30.5
		c-1-1.1-2.1-2.2-3.2-3.3c-0.9,0.6-0.6,1.5-0.6,2.2c0,6.5,0,13,0,19.4c0,16.3,0,32.6,0,49c0,7.9-0.2,15.8-0.3,23.7c0,2-0.3,4-0.7,6
		c-1,5-3.6,8.7-8.7,10.2c-0.6,0.2-1.1,0.5-1.6,0.8c-1,0-1.9,0-2.9,0c-2.1-0.8-4.2-1.6-6.2-2.4C34.9,399.1,34.9,285.1,34.9,171z
		 M142.6,426c5.4,0.2,15.8-1.5,22.7-3.3c18-4.7,32.4-14.8,44-29.1c12.2-15.2,19.7-32.6,24.4-51.4c4-16.1,5.5-32.4,5.6-49
		c0-3.3-0.2-6.6-0.2-9.8c-0.1-13.4-1.5-26.6-4.5-39.7c-3.3-14.6-8.6-28.4-17.1-40.9c-10.9-15.9-25.4-26.6-44.2-31.2
		c-14.4-3.6-28.8-3.2-43.2,0.1c-22,5-39.2,17.1-52.4,35.1c-14.2,19.2-20.9,41-22.1,64.6c-0.4,9-0.2,18.1-0.2,27.1
		c0,14.2,0.1,28.5,0,42.7c0,6.2,0.1,12.3,1,18.4c3.6,23.5,15.7,41.3,35.8,53.6C106.6,422.1,122.6,425.9,142.6,426z"/>
	<path class="st0" d="M747.7,43.3c1.4,0.4,2.7,0.8,4.1,1.2c1.6,0.5,2.6,1.4,2.4,3.3c-0.2,1.7,0.1,3.5,0.1,5.3c0,86,0,172,0,257.9
		c0,1,0,2,0,3c0.2,0.1,0.3,0.2,0.5,0.2c0.5-0.4,1.1-0.8,1.5-1.3c17.3-19.1,34.6-38.3,52-57.5c25.4-28.1,50.7-56.1,76-84.2
		c1.7-1.8,3.3-3.7,5.1-5.4c6-6.2,13.5-8.3,21.8-7.7c2.7,0.2,5.3,0.8,8.4,1.3c-42,46.7-83.6,93-125.5,139.6c2.1,0.2,3.8,0.3,5.4,0.5
		c3.3,0.3,6.3,1.4,8.7,3.6c2.6,2.3,5.3,4.7,7.6,7.3c28.2,32.4,56.3,64.8,84.5,97.2c5.9,6.7,12,13.3,18.1,19.9c2.4,2.6,5,5,8.2,6.6
		c0.3,0.2,0.7,0.2,1.1,0.4c0,1.4,0,2.9,0,4.3c-5.2,1.4-10.4,2.4-15.9,1.5c-6.1-1-11.1-3.7-15.2-8.3c-11.3-13-22.6-25.9-33.9-38.9
		c-24.6-28.2-49.2-56.4-73.9-84.6c-0.5-0.6-1.1-1.1-1.8-1.9c-0.8,0.7-1.5,1.3-2.1,2c-9.7,10.8-19.3,21.6-29,32.3
		c-1.3,1.4-1.7,2.9-1.7,4.8c0,19.9,0,39.8,0,59.8c0,5.6-0.1,11.2-0.2,16.8c-0.1,2.6-0.4,5.1-0.7,7.6c-0.9,6.4-6,11-11.9,10.7
		c-2-0.1-4-1-6-1.6c-0.9-0.3-1.2-0.9-1.1-1.9c0-0.6,0-1.1,0-1.7c0-124.9,0-249.8,0-374.6c0-2.9,0.3-5.8,1.2-8.5
		c1.5-4.7,4.3-8,9.5-8.6c0.3,0,0.6-0.3,0.8-0.4C746.5,43.3,747.1,43.3,747.7,43.3z"/>
	<path class="st0" d="M34.9,513.2c2.1,0.8,4.2,1.6,6.2,2.4c-2.1,0-4.2,0-6.2,0C34.9,514.8,34.9,514,34.9,513.2z"/>
	<path class="st0" d="M493.4,259c0.3-2.1,0.6-4.2,1-6.3c3.2-22,10.2-42.5,23.5-60.6c15.5-21.2,36.2-34,62.2-38.4
		c12.8-2.2,25.6-2.5,38.5-0.8c31.2,4.1,55.6,19.3,73.5,45.1c10.9,15.8,17.6,33.3,21.6,51.9c2.1,9.8,3.3,19.7,4,29.7
		c0.6,9.3,0.7,18.5,0.3,27.8c-0.9,20.5-4.4,40.5-12,59.6c-6.4,16-15.4,30.3-27.6,42.5c-14.7,14.6-32.2,23.9-52.5,28.2
		c-9,1.9-18.1,2.9-27.4,3.1c-26.6,0.6-51.4-5.8-74.4-19.3c-6.6-3.9-12.7-8.3-17.7-14.1c-1.7-1.9-3.2-4-4.4-6.3
		c-2.9-5.5-0.4-10.7,5.6-12.1c2.6-0.6,4.5,0.1,6.4,1.9c12.2,11.5,26.1,20.6,41.8,26.5c9.6,3.6,19.4,5.8,29.6,6.7
		c14.1,1.3,28.1,0.4,41.7-3.7c17.3-5.2,31.4-15.2,42.6-29.2c10.6-13.3,17.5-28.3,21.9-44.7c3.1-11.6,4.9-23.5,5.4-35.5
		c0.1-3.2,0.3-6.4,0.5-9.9c-136.3-0.4-272.3,0.6-408.6,0.2c0,1.9-0.1,3.4,0,4.9c0.5,10.7,1.5,21.4,3.7,31.9
		c3.6,17.1,9.6,33.2,19.6,47.5c9.3,13.3,21,24,35.9,30.9c8.1,3.7,16.6,5.9,25.3,7c5.5,0.7,11,1.3,16.5,1.3
		c22.2,0.2,42.7-5.9,61.6-17.7c7.4-4.6,14.2-10.2,20.7-16c3.3-3,7.4-2.9,10.8,0c3.2,2.8,3.6,7.2,1,11.1c-3.4,5.1-7.7,9.4-12.5,13.2
		c-7.9,6.2-16.8,10.8-26,14.7c-12,5.1-24.4,8.4-37.4,9.9c-20.5,2.3-40.7,1.1-60.3-5.7c-24.4-8.5-43-24.1-56.6-45.9
		c-8.7-14-14.5-29.2-18.1-45.2c-2.4-10.9-3.8-21.9-4.5-33c-0.6-10.6-0.6-21.1,0.2-31.6c1.4-19.7,5.1-38.8,12.8-57
		c5.6-13.2,12.8-25.4,22.6-36c15.3-16.5,34-27.1,56.2-31.3c9.5-1.8,19-2.6,28.6-2.2c14,0.6,27.6,3,40.5,8.6c16.1,7,29,18,39.2,32.1
		c11.3,15.6,18.2,33,21.6,51.8c0.7,4.1,1.3,8.2,2,12.3c0.1,0.7,0.4,1.5,0.5,2.2C493.1,259.1,493.2,259.1,493.4,259z M697.4,286.1
		c0-1.2,0-2.2,0-3.1c-0.1-2.2-0.3-4.5-0.4-6.7c-0.5-9.7-1.8-19.2-4-28.7c-3.7-16-9.7-30.9-19.3-44.3c-10.7-15-24.4-25.8-42.2-31.2
		c-14.7-4.4-29.6-5.2-44.8-2.8c-21.6,3.4-38.3,14.3-50.7,32.2c-7.6,10.9-12.7,23-16.4,35.8c-2.9,10-4.6,20.3-5.7,30.6
		c-0.4,4.1-0.7,8.3-1,12.4c-0.1,2.3,0.1,2.5,2.3,2.6c3.6,0.1,7.2,0.3,10.8,0.3c8.6,0.2,17.3,0.3,25.9,0.5c8.8,0.2,17.6,0.3,26.4,0.5
		c9.1,0.2,18.2,0.3,27.3,0.5c8.8,0.2,17.6,0.3,26.4,0.5c13.3,0.2,26.5,0.4,39.8,0.6c4.7,0.1,9.4,0.3,14.1,0.4
		C689.7,286.2,693.4,286.1,697.4,286.1z M473.2,283c0-1.4,0-2.4,0-3.4c-0.6-11.3-1.9-22.6-4.4-33.7c-3.5-15.6-9-30.5-18.2-43.8
		c-7.9-11.5-17.8-20.7-30.6-26.6c-9-4.1-18.4-6.3-28.2-7.1c-13.1-1.2-26,0.2-38.6,4.2c-16.7,5.3-29.7,15.7-40,29.6
		c-9.7,13.1-15.8,27.9-19.7,43.6c-3.1,12.4-4.1,25.1-4.8,37.8c0,0.7,0.1,1.4,0.2,2.3c1,0,1.8,0,2.6,0c10.2-0.2,20.3-0.3,30.5-0.5
		c9.1-0.2,18.2-0.3,27.3-0.5c9.6-0.2,19.2-0.3,28.8-0.5c8.2-0.1,16.5-0.3,24.7-0.5c9-0.2,18.1-0.3,27.1-0.5
		c13.4-0.2,26.9-0.3,40.3-0.5C471.1,283,472,283,473.2,283z"/>
	<path class="st0" d="M357.7,348.2c11.4,0,20.7,9.3,20.8,20.7c0,11.6-9.4,21-20.9,20.9c-11.5-0.1-20.6-9.3-20.6-20.9
		C337,357.5,346.2,348.2,357.7,348.2z"/>
	<path class="st0" d="M533.3,368.9c0-11.5,9.2-20.7,20.7-20.7c11.5,0,20.9,9.4,20.8,20.9c-0.1,11.4-9.5,20.8-20.9,20.6
		C540.5,389.5,532.9,378.4,533.3,368.9z"/>
</g>
</svg>
